<svg width="260" height="252" viewBox="0 0 260 252" fill="none" xmlns="http://www.w3.org/2000/svg">
<path fill-rule="evenodd" clip-rule="evenodd" d="M102.64 68.2413L122.531 30.8714C123.022 29.9037 123.72 29.0483 124.578 28.362C125.258 27.8183 126.026 27.3905 126.849 27.0949C128.508 26.9206 130.181 26.8261 131.862 26.8136C134.013 26.7975 136.154 26.9158 138.272 27.1645C138.966 27.4266 139.621 27.7825 140.217 28.2233C141.171 28.9289 141.949 29.834 142.493 30.8713L162.368 68.2413C163.195 69.7555 164.433 71.0216 165.948 71.9028C167.463 72.7841 169.197 73.2471 170.964 73.2418H210.245C210.153 54.8087 202.91 37.0852 189.957 23.5987C177.346 10.4685 160.223 2.29181 141.843 0.585778C138.479 0.173454 135.078 -0.0232989 131.659 0.00219447C127.677 0.0318815 123.724 0.362705 119.83 0.983579C102.5 3.23087 86.4587 11.2465 74.4915 23.727C61.5658 37.2071 54.3386 54.9099 54.2451 73.3202H94.0434C95.8182 73.318 97.5584 72.8433 99.0742 71.9477C100.59 71.0521 101.823 69.7701 102.64 68.2413Z" fill="#4F46E5"/>
<path fill-rule="evenodd" clip-rule="evenodd" d="M102.64 87.7587L122.531 125.129C123.022 126.096 123.72 126.952 124.578 127.638C125.258 128.182 126.026 128.61 126.849 128.905C128.508 129.079 130.181 129.174 131.862 129.186C134.013 129.202 136.154 129.084 138.272 128.835C138.966 128.573 139.621 128.218 140.217 127.777C141.171 127.071 141.949 126.166 142.493 125.129L162.368 87.7587C163.195 86.2445 164.433 84.9784 165.948 84.0972C167.463 83.2159 169.197 82.7529 170.964 82.7582H210.245C210.153 101.191 202.91 118.915 189.957 132.401C177.346 145.531 160.223 153.708 141.843 155.414C138.479 155.827 135.078 156.023 131.659 155.998C127.677 155.968 123.724 155.637 119.83 155.016C102.5 152.769 86.4587 144.753 74.4915 132.273C61.5658 118.793 54.3386 101.09 54.2451 82.6798H94.0434C95.8182 82.682 97.5584 83.1567 99.0742 84.0523C100.59 84.9479 101.823 86.2299 102.64 87.7587Z" fill="#4F46E5"/>
<path d="M0 251L23.4327 191.916H35.3164L58.498 251H44.6058L26.8639 201.959H31.6341L13.6412 251H0ZM13.3064 240.288V229.576H45.5264V240.288H13.3064Z" fill="#F9FAFB"/>
<path d="M73.7025 251V239.451H88.3479C91.9186 239.451 95.0429 238.753 97.721 237.359C100.399 235.908 102.463 233.816 103.914 231.082C105.364 228.348 106.09 225.112 106.09 221.374C106.09 217.636 105.337 214.428 103.83 211.75C102.38 209.072 100.315 207.008 97.6373 205.557C95.015 204.107 91.9186 203.381 88.3479 203.381H73.284V191.916H88.5153C92.9786 191.916 97.0793 192.641 100.817 194.092C104.611 195.487 107.903 197.523 110.693 200.201C113.538 202.823 115.714 205.948 117.22 209.574C118.782 213.145 119.564 217.106 119.564 221.458C119.564 225.754 118.782 229.715 117.22 233.342C115.714 236.968 113.566 240.092 110.776 242.715C107.987 245.337 104.695 247.373 100.901 248.824C97.163 250.275 93.0902 251 88.6826 251H73.7025ZM64.8315 251V191.916H77.9706V251H64.8315Z" fill="#F9FAFB"/>
<path d="M123.489 251L146.922 191.916H158.805L181.987 251H168.095L150.353 201.959H155.123L137.13 251H123.489ZM136.795 240.288V229.576H169.015V240.288H136.795Z" fill="#F9FAFB"/>
<path d="M211.434 251.92C206.58 251.92 202.284 250.888 198.546 248.824C194.864 246.76 191.963 243.914 189.843 240.288C187.778 236.605 186.746 232.421 186.746 227.735V191.916H199.969V228.488C199.969 230.831 200.471 232.867 201.475 234.597C202.48 236.327 203.846 237.666 205.576 238.614C207.361 239.507 209.314 239.953 211.434 239.953C213.666 239.953 215.619 239.507 217.292 238.614C218.966 237.666 220.277 236.354 221.226 234.681C222.23 232.951 222.732 230.915 222.732 228.571V191.916H235.955V227.818C235.955 232.505 234.923 236.661 232.858 240.288C230.794 243.914 227.921 246.76 224.238 248.824C220.556 250.888 216.288 251.92 211.434 251.92Z" fill="#F9FAFB"/>
<path d="M246.428 251V191.916H259.567V251H246.428Z" fill="#F9FAFB"/>
</svg>
